# MagicaVoxel @ Ephtracy

# group
o 

# material
mtllib felipinho.mtl
usemtl palette

# normals
vn -1 0 0
vn 1 0 0
vn 0 0 1
vn 0 0 -1
vn 0 -1 0
vn 0 1 0

# texcoords
vt 0.00585938 0.5
vt 0.0605469 0.5
vt 0.0683594 0.5
vt 0.205078 0.5
vt 0.306641 0.5
vt 0.587891 0.5
vt 0.876953 0.5
vt 0.958984 0.5
vt 0.974609 0.5
vt 0.978516 0.5
vt 0.994141 0.5

# verts
v 0.4 1.6 -1.3
v 0.4 1.6 -1.5
v 0.4 1.8 -1.3
v 0.4 1.8 -1.5
v 0.6 1 -0.3
v 0.6 1 -0.5
v 0.6 1 -0.8
v 0.6 1 -1
v 0.6 1.4 -0.5
v 0.6 1.4 -0.8
v 0.6 1.5 -0.3
v 0.6 1.5 -1
v 0.6 1.6 -1.2
v 0.6 1.6 -1.3
v 0.6 1.6 -1.5
v 0.6 1.6 -1.6
v 0.6 1.7 -0.4
v 0.6 1.7 -0.6
v 0.6 1.8 -1.2
v 0.6 1.8 -1.3
v 0.6 1.8 -1.5
v 0.6 1.8 -1.6
v 0.6 1.9 -1.2
v 0.6 1.9 -1.5
v 0.6 2 -1.1
v 0.6 2 -1.2
v 0.6 2 -1.5
v 0.6 2 -1.6
v 0.6 2.2 -0.4
v 0.6 2.2 -0.6
v 0.6 2.2 -1.1
v 0.6 2.2 -1.2
v 0.6 2.3 -1.5
v 0.6 2.3 -1.6
v 0.6 2.4 -1.2
v 0.6 2.4 -1.5
v 0.7 1 -1.2
v 0.7 1 -1.6
v 0.7 1.4 -1.2
v 0.7 1.4 -1.6
v 0.7 1.5 -0.7
v 0.7 1.5 -0.9
v 0.7 1.6 -0.7
v 0.7 1.6 -0.9
v 0.7 1.6 -1.2
v 0.7 1.6 -1.6
v 0.7 1.8 -1.2
v 0.7 1.8 -1.6
v 0.7 1.9 -1.2
v 0.7 1.9 -1.5
v 0.7 1.9 -1.6
v 0.7 2 -1.5
v 0.7 2 -1.6
v 0.7 2 -1.7
v 0.7 2.2 -1.1
v 0.7 2.2 -1.2
v 0.7 2.3 -1.5
v 0.7 2.3 -1.6
v 0.7 2.3 -1.7
v 0.7 2.4 -1.1
v 0.7 2.4 -1.2
v 0.7 2.4 -1.5
v 0.7 2.4 -1.6
v 0.8 1.5 -0.4
v 0.8 1.5 -0.6
v 0.8 1.6 -0.4
v 0.8 1.6 -0.6
v 0.9 1.5 -0.7
v 0.9 1.5 -0.9
v 0.9 1.6 -0.4
v 0.9 1.6 -0.6
v 0.9 1.6 -0.7
v 0.9 1.6 -0.9
v 0.9 1.7 -0.4
v 0.9 1.7 -0.6
v 0.9 1.9 -1.6
v 0.9 1.9 -1.7
v 0.9 2 -1.1
v 0.9 2 -1.2
v 0.9 2 -1.6
v 0.9 2 -1.7
v 0.9 2.1 -1.1
v 0.9 2.1 -1.2
v 1.1 1 -0.3
v 1.1 1 -0.5
v 1.1 1 -0.8
v 1.1 1 -1
v 1.1 1 -1.2
v 1.1 1 -1.6
v 1.1 1.2 -1.2
v 1.1 1.2 -1.6
v 1.1 1.4 -0.3
v 1.1 1.4 -0.5
v 1.1 1.4 -0.8
v 1.1 1.4 -1
v 1.2 2 -1.1
v 1.2 2 -1.2
v 1.2 2.1 -1.1
v 1.2 2.1 -1.2
v 0.8 1 -0.3
v 0.8 1 -0.5
v 0.8 1 -0.8
v 0.8 1 -1
v 0.8 1.4 -0.3
v 0.8 1.4 -0.5
v 0.8 1.4 -0.8
v 0.8 1.4 -1
v 0.8 1.5 -0.7
v 0.8 1.5 -0.9
v 0.8 1.6 -0.7
v 0.8 1.6 -0.9
v 0.8 2 -1.1
v 0.8 2 -1.2
v 0.8 2.1 -1.1
v 0.8 2.1 -1.2
v 0.8 2.3 -1.1
v 0.8 2.3 -1.2
v 0.8 2.4 -1.1
v 0.8 2.4 -1.2
v 0.9 1 -1.2
v 0.9 1 -1.6
v 0.9 1.2 -1.2
v 0.9 1.2 -1.6
v 1 1.6 -0.4
v 1 1.6 -0.6
v 1 1.7 -0.4
v 1 1.7 -0.6
v 1 2 -1.1
v 1 2 -1.2
v 1 2.1 -1.1
v 1 2.1 -1.2
v 1.1 1.5 -0.4
v 1.1 1.5 -0.6
v 1.1 1.6 -0.4
v 1.1 1.6 -0.6
v 1.1 1.9 -1.6
v 1.1 1.9 -1.7
v 1.1 2 -1.6
v 1.1 2 -1.7
v 1.2 1.5 -0.7
v 1.2 1.5 -0.9
v 1.2 1.6 -0.7
v 1.2 1.6 -0.9
v 1.3 1 -0.3
v 1.3 1 -0.5
v 1.3 1 -0.8
v 1.3 1 -1
v 1.3 1 -1.2
v 1.3 1 -1.6
v 1.3 1.4 -0.5
v 1.3 1.4 -0.8
v 1.3 1.4 -1.2
v 1.3 1.4 -1.6
v 1.3 1.5 -0.3
v 1.3 1.5 -1
v 1.3 1.6 -1.2
v 1.3 1.6 -1.6
v 1.3 1.7 -0.4
v 1.3 1.7 -0.6
v 1.3 1.8 -1.2
v 1.3 1.8 -1.6
v 1.3 1.9 -1.2
v 1.3 1.9 -1.5
v 1.3 1.9 -1.6
v 1.3 2 -1.5
v 1.3 2 -1.6
v 1.3 2 -1.7
v 1.3 2.2 -0.4
v 1.3 2.2 -0.6
v 1.3 2.2 -1.1
v 1.3 2.2 -1.2
v 1.3 2.3 -1.1
v 1.3 2.3 -1.2
v 1.3 2.3 -1.3
v 1.3 2.3 -1.5
v 1.3 2.3 -1.6
v 1.3 2.3 -1.7
v 1.3 2.4 -1.2
v 1.3 2.4 -1.3
v 1.3 2.4 -1.5
v 1.3 2.4 -1.6
v 1.4 1.6 -1.2
v 1.4 1.6 -1.3
v 1.4 1.6 -1.5
v 1.4 1.6 -1.6
v 1.4 1.8 -1.2
v 1.4 1.8 -1.3
v 1.4 1.8 -1.5
v 1.4 1.8 -1.6
v 1.4 1.9 -1.2
v 1.4 1.9 -1.5
v 1.4 2 -1.1
v 1.4 2 -1.2
v 1.4 2 -1.5
v 1.4 2 -1.6
v 1.4 2.2 -1.1
v 1.4 2.2 -1.2
v 1.4 2.3 -1.2
v 1.4 2.3 -1.3
v 1.4 2.3 -1.5
v 1.4 2.3 -1.6
v 1.4 2.4 -1.3
v 1.4 2.4 -1.5
v 1.6 1.6 -1.3
v 1.6 1.6 -1.5
v 1.6 1.8 -1.3
v 1.6 1.8 -1.5
v 0.6 1 -0.3
v 0.6 1.5 -0.3
v 0.8 1 -0.3
v 0.8 1.4 -0.3
v 1.1 1 -0.3
v 1.1 1.4 -0.3
v 1.3 1 -0.3
v 1.3 1.5 -0.3
v 0.6 1.7 -0.4
v 0.6 2.2 -0.4
v 0.8 1.5 -0.4
v 0.8 1.6 -0.4
v 0.9 1.6 -0.4
v 0.9 1.7 -0.4
v 1 1.6 -0.4
v 1 1.7 -0.4
v 1.1 1.5 -0.4
v 1.1 1.6 -0.4
v 1.3 1.7 -0.4
v 1.3 2.2 -0.4
v 0.7 1.5 -0.7
v 0.7 1.6 -0.7
v 0.8 1.5 -0.7
v 0.8 1.6 -0.7
v 0.9 1.5 -0.7
v 0.9 1.6 -0.7
v 1.2 1.5 -0.7
v 1.2 1.6 -0.7
v 0.6 1 -0.8
v 0.6 1.4 -0.8
v 0.8 1 -0.8
v 0.8 1.4 -0.8
v 1.1 1 -0.8
v 1.1 1.4 -0.8
v 1.3 1 -0.8
v 1.3 1.4 -0.8
v 0.6 2 -1.1
v 0.6 2.2 -1.1
v 0.7 2.2 -1.1
v 0.7 2.4 -1.1
v 0.8 2 -1.1
v 0.8 2.1 -1.1
v 0.8 2.3 -1.1
v 0.8 2.4 -1.1
v 0.9 2 -1.1
v 0.9 2.1 -1.1
v 1 2 -1.1
v 1 2.1 -1.1
v 1.2 2 -1.1
v 1.2 2.1 -1.1
v 1.3 2.2 -1.1
v 1.3 2.3 -1.1
v 1.4 2 -1.1
v 1.4 2.2 -1.1
v 0.6 1.6 -1.2
v 0.6 1.8 -1.2
v 0.6 1.9 -1.2
v 0.6 2 -1.2
v 0.6 2.2 -1.2
v 0.6 2.4 -1.2
v 0.7 1 -1.2
v 0.7 1.4 -1.2
v 0.7 1.6 -1.2
v 0.7 1.8 -1.2
v 0.7 1.9 -1.2
v 0.7 2.2 -1.2
v 0.7 2.4 -1.2
v 0.8 1.5 -1.2
v 0.8 1.7 -1.2
v 0.8 1.9 -1.2
v 0.8 2 -1.2
v 0.8 2.1 -1.2
v 0.8 2.3 -1.2
v 0.8 2.4 -1.2
v 0.9 1 -1.2
v 0.9 1.2 -1.2
v 0.9 1.6 -1.2
v 0.9 1.7 -1.2
v 0.9 1.9 -1.2
v 0.9 2 -1.2
v 0.9 2.1 -1.2
v 1 1.5 -1.2
v 1 1.6 -1.2
v 1 1.7 -1.2
v 1 2 -1.2
v 1 2.1 -1.2
v 1.1 1 -1.2
v 1.1 1.2 -1.2
v 1.1 1.5 -1.2
v 1.1 1.6 -1.2
v 1.1 1.7 -1.2
v 1.1 1.9 -1.2
v 1.1 2 -1.2
v 1.2 1.5 -1.2
v 1.2 1.6 -1.2
v 1.2 1.9 -1.2
v 1.2 2 -1.2
v 1.2 2.1 -1.2
v 1.3 1 -1.2
v 1.3 1.4 -1.2
v 1.3 1.6 -1.2
v 1.3 1.8 -1.2
v 1.3 1.9 -1.2
v 1.3 2.2 -1.2
v 1.3 2.3 -1.2
v 1.3 2.4 -1.2
v 1.4 1.6 -1.2
v 1.4 1.8 -1.2
v 1.4 1.9 -1.2
v 1.4 2 -1.2
v 1.4 2.2 -1.2
v 1.4 2.3 -1.2
v 0.4 1.6 -1.3
v 0.4 1.8 -1.3
v 0.6 1.6 -1.3
v 0.6 1.8 -1.3
v 1.3 2.3 -1.3
v 1.3 2.4 -1.3
v 1.4 1.6 -1.3
v 1.4 1.8 -1.3
v 1.4 2.3 -1.3
v 1.4 2.4 -1.3
v 1.6 1.6 -1.3
v 1.6 1.8 -1.3
v 0.6 1 -0.5
v 0.6 1.4 -0.5
v 0.8 1 -0.5
v 0.8 1.4 -0.5
v 1.1 1 -0.5
v 1.1 1.4 -0.5
v 1.3 1 -0.5
v 1.3 1.4 -0.5
v 0.6 1.7 -0.6
v 0.6 2.2 -0.6
v 0.7 1.8 -0.6
v 0.7 2.1 -0.6
v 0.8 1.5 -0.6
v 0.8 1.6 -0.6
v 0.8 1.9 -0.6
v 0.8 2 -0.6
v 0.9 1.6 -0.6
v 0.9 1.7 -0.6
v 1 1.6 -0.6
v 1 1.7 -0.6
v 1.1 1.5 -0.6
v 1.1 1.6 -0.6
v 1.1 1.9 -0.6
v 1.1 2 -0.6
v 1.2 1.8 -0.6
v 1.2 2.1 -0.6
v 1.3 1.7 -0.6
v 1.3 2.2 -0.6
v 0.7 1.5 -0.9
v 0.7 1.6 -0.9
v 0.8 1.5 -0.9
v 0.8 1.6 -0.9
v 0.9 1.5 -0.9
v 0.9 1.6 -0.9
v 1.2 1.5 -0.9
v 1.2 1.6 -0.9
v 0.6 1 -1
v 0.6 1.5 -1
v 0.8 1 -1
v 0.8 1.4 -1
v 1.1 1 -1
v 1.1 1.4 -1
v 1.3 1 -1
v 1.3 1.5 -1
v 0.4 1.6 -1.5
v 0.4 1.8 -1.5
v 0.6 1.6 -1.5
v 0.6 1.8 -1.5
v 0.6 1.9 -1.5
v 0.6 2 -1.5
v 0.6 2.3 -1.5
v 0.6 2.4 -1.5
v 0.7 1.9 -1.5
v 0.7 2 -1.5
v 0.7 2.3 -1.5
v 0.7 2.4 -1.5
v 1.3 1.9 -1.5
v 1.3 2 -1.5
v 1.3 2.3 -1.5
v 1.3 2.4 -1.5
v 1.4 1.6 -1.5
v 1.4 1.8 -1.5
v 1.4 1.9 -1.5
v 1.4 2 -1.5
v 1.4 2.3 -1.5
v 1.4 2.4 -1.5
v 1.6 1.6 -1.5
v 1.6 1.8 -1.5
v 0.6 1.6 -1.6
v 0.6 1.8 -1.6
v 0.6 2 -1.6
v 0.6 2.3 -1.6
v 0.7 1 -1.6
v 0.7 1.4 -1.6
v 0.7 1.6 -1.6
v 0.7 1.8 -1.6
v 0.7 1.9 -1.6
v 0.7 2 -1.6
v 0.7 2.3 -1.6
v 0.7 2.4 -1.6
v 0.9 1 -1.6
v 0.9 1.2 -1.6
v 0.9 1.9 -1.6
v 0.9 2 -1.6
v 1.1 1 -1.6
v 1.1 1.2 -1.6
v 1.1 1.9 -1.6
v 1.1 2 -1.6
v 1.3 1 -1.6
v 1.3 1.4 -1.6
v 1.3 1.6 -1.6
v 1.3 1.8 -1.6
v 1.3 1.9 -1.6
v 1.3 2 -1.6
v 1.3 2.3 -1.6
v 1.3 2.4 -1.6
v 1.4 1.6 -1.6
v 1.4 1.8 -1.6
v 1.4 2 -1.6
v 1.4 2.3 -1.6
v 0.7 2 -1.7
v 0.7 2.3 -1.7
v 0.9 1.9 -1.7
v 0.9 2 -1.7
v 1.1 1.9 -1.7
v 1.1 2 -1.7
v 1.3 2 -1.7
v 1.3 2.3 -1.7
v 0.6 1 -0.3
v 0.8 1 -0.3
v 1.1 1 -0.3
v 1.3 1 -0.3
v 0.6 1 -0.5
v 0.8 1 -0.5
v 1.1 1 -0.5
v 1.3 1 -0.5
v 0.6 1 -0.8
v 0.8 1 -0.8
v 1.1 1 -0.8
v 1.3 1 -0.8
v 0.6 1 -1
v 0.8 1 -1
v 1.1 1 -1
v 1.3 1 -1
v 0.7 1 -1.2
v 0.9 1 -1.2
v 1.1 1 -1.2
v 1.3 1 -1.2
v 0.7 1 -1.6
v 0.9 1 -1.6
v 1.1 1 -1.6
v 1.3 1 -1.6
v 0.9 1.2 -1.2
v 1.1 1.2 -1.2
v 0.9 1.2 -1.6
v 1.1 1.2 -1.6
v 0.8 1.4 -0.3
v 1.1 1.4 -0.3
v 0.6 1.4 -0.5
v 0.8 1.4 -0.5
v 1.1 1.4 -0.5
v 1.3 1.4 -0.5
v 0.6 1.4 -0.8
v 0.8 1.4 -0.8
v 1.1 1.4 -0.8
v 1.3 1.4 -0.8
v 0.8 1.4 -1
v 1.1 1.4 -1
v 0.6 1.6 -1.2
v 0.7 1.6 -1.2
v 1.3 1.6 -1.2
v 1.4 1.6 -1.2
v 0.4 1.6 -1.3
v 0.6 1.6 -1.3
v 1.4 1.6 -1.3
v 1.6 1.6 -1.3
v 0.4 1.6 -1.5
v 0.6 1.6 -1.5
v 1.4 1.6 -1.5
v 1.6 1.6 -1.5
v 0.6 1.6 -1.6
v 0.7 1.6 -1.6
v 1.3 1.6 -1.6
v 1.4 1.6 -1.6
v 0.6 1.7 -0.4
v 0.9 1.7 -0.4
v 1 1.7 -0.4
v 1.3 1.7 -0.4
v 0.6 1.7 -0.6
v 0.9 1.7 -0.6
v 1 1.7 -0.6
v 1.3 1.7 -0.6
v 0.6 1.9 -1.2
v 0.7 1.9 -1.2
v 1.3 1.9 -1.2
v 1.4 1.9 -1.2
v 0.6 1.9 -1.5
v 0.7 1.9 -1.5
v 1.3 1.9 -1.5
v 1.4 1.9 -1.5
v 0.9 1.9 -1.6
v 1.1 1.9 -1.6
v 0.9 1.9 -1.7
v 1.1 1.9 -1.7
v 0.6 2 -1.1
v 0.8 2 -1.1
v 0.9 2 -1.1
v 1 2 -1.1
v 1.2 2 -1.1
v 1.4 2 -1.1
v 0.6 2 -1.2
v 0.8 2 -1.2
v 0.9 2 -1.2
v 1 2 -1.2
v 1.2 2 -1.2
v 1.4 2 -1.2
v 0.6 2 -1.5
v 0.7 2 -1.5
v 1.3 2 -1.5
v 1.4 2 -1.5
v 0.6 2 -1.6
v 0.7 2 -1.6
v 0.9 2 -1.6
v 1.1 2 -1.6
v 1.3 2 -1.6
v 1.4 2 -1.6
v 0.7 2 -1.7
v 0.9 2 -1.7
v 1.1 2 -1.7
v 1.3 2 -1.7
v 0.8 2.1 -1.1
v 0.9 2.1 -1.1
v 1 2.1 -1.1
v 1.2 2.1 -1.1
v 0.8 2.1 -1.2
v 0.9 2.1 -1.2
v 1 2.1 -1.2
v 1.2 2.1 -1.2
v 0.6 1.5 -0.3
v 1.3 1.5 -0.3
v 0.8 1.5 -0.4
v 1.1 1.5 -0.4
v 0.8 1.5 -0.6
v 1.1 1.5 -0.6
v 0.7 1.5 -0.7
v 0.8 1.5 -0.7
v 0.9 1.5 -0.7
v 1.2 1.5 -0.7
v 0.7 1.5 -0.9
v 0.8 1.5 -0.9
v 0.9 1.5 -0.9
v 1.2 1.5 -0.9
v 0.6 1.5 -1
v 1.3 1.5 -1
v 0.8 1.6 -0.4
v 0.9 1.6 -0.4
v 1 1.6 -0.4
v 1.1 1.6 -0.4
v 0.8 1.6 -0.6
v 0.9 1.6 -0.6
v 1 1.6 -0.6
v 1.1 1.6 -0.6
v 0.7 1.6 -0.7
v 0.8 1.6 -0.7
v 0.9 1.6 -0.7
v 1.2 1.6 -0.7
v 0.7 1.6 -0.9
v 0.8 1.6 -0.9
v 0.9 1.6 -0.9
v 1.2 1.6 -0.9
v 0.6 1.8 -1.2
v 0.7 1.8 -1.2
v 1.3 1.8 -1.2
v 1.4 1.8 -1.2
v 0.4 1.8 -1.3
v 0.6 1.8 -1.3
v 1.4 1.8 -1.3
v 1.6 1.8 -1.3
v 0.4 1.8 -1.5
v 0.6 1.8 -1.5
v 1.4 1.8 -1.5
v 1.6 1.8 -1.5
v 0.6 1.8 -1.6
v 0.7 1.8 -1.6
v 1.3 1.8 -1.6
v 1.4 1.8 -1.6
v 0.6 2.2 -0.4
v 1.3 2.2 -0.4
v 0.6 2.2 -0.6
v 1.3 2.2 -0.6
v 0.6 2.2 -1.1
v 0.7 2.2 -1.1
v 1.3 2.2 -1.1
v 1.4 2.2 -1.1
v 0.6 2.2 -1.2
v 0.7 2.2 -1.2
v 1.3 2.2 -1.2
v 1.4 2.2 -1.2
v 0.8 2.3 -1.1
v 1.3 2.3 -1.1
v 0.8 2.3 -1.2
v 1.3 2.3 -1.2
v 1.4 2.3 -1.2
v 1.3 2.3 -1.3
v 1.4 2.3 -1.3
v 0.6 2.3 -1.5
v 0.7 2.3 -1.5
v 1.3 2.3 -1.5
v 1.4 2.3 -1.5
v 0.6 2.3 -1.6
v 0.7 2.3 -1.6
v 1.3 2.3 -1.6
v 1.4 2.3 -1.6
v 0.7 2.3 -1.7
v 1.3 2.3 -1.7
v 0.7 2.4 -1.1
v 0.8 2.4 -1.1
v 0.6 2.4 -1.2
v 0.7 2.4 -1.2
v 0.8 2.4 -1.2
v 1.3 2.4 -1.2
v 1.3 2.4 -1.3
v 1.4 2.4 -1.3
v 0.6 2.4 -1.5
v 0.7 2.4 -1.5
v 1.3 2.4 -1.5
v 1.4 2.4 -1.5
v 0.7 2.4 -1.6
v 1.3 2.4 -1.6

# faces
f 3/2/1 2/2/1 1/2/1
f 4/2/1 2/2/1 3/2/1
f 9/7/1 6/7/1 5/7/1
f 10/7/1 8/7/1 7/7/1
f 11/7/1 9/7/1 5/7/1
f 11/7/1 10/7/1 9/7/1
f 12/7/1 8/7/1 10/7/1
f 12/7/1 10/7/1 11/7/1
f 19/5/1 14/5/1 13/5/1
f 20/5/1 14/5/1 19/5/1
f 21/5/1 16/5/1 15/5/1
f 22/5/1 16/5/1 21/5/1
f 26/1/1 24/1/1 23/1/1
f 27/1/1 24/1/1 26/1/1
f 29/11/1 18/11/1 17/11/1
f 30/11/1 18/11/1 29/11/1
f 31/1/1 28/1/1 27/1/1
f 31/1/1 26/1/1 25/1/1
f 31/1/1 27/1/1 26/1/1
f 32/1/1 28/1/1 31/1/1
f 33/1/1 28/1/1 32/1/1
f 34/1/1 28/1/1 33/1/1
f 35/1/1 33/1/1 32/1/1
f 36/1/1 33/1/1 35/1/1
f 39/11/1 38/11/1 37/11/1
f 40/11/1 38/11/1 39/11/1
f 43/11/1 42/11/1 41/11/1
f 44/11/1 42/11/1 43/11/1
f 45/5/1 40/5/1 39/5/1
f 46/5/1 40/5/1 45/5/1
f 49/2/1 48/2/1 47/2/1
f 50/2/1 48/2/1 49/2/1
f 51/2/1 48/2/1 50/2/1
f 52/1/1 51/1/1 50/1/1
f 53/1/1 51/1/1 52/1/1
f 58/1/1 54/1/1 53/1/1
f 59/1/1 54/1/1 58/1/1
f 60/1/1 56/1/1 55/1/1
f 61/1/1 56/1/1 60/1/1
f 62/1/1 58/1/1 57/1/1
f 63/1/1 58/1/1 62/1/1
f 66/11/1 65/11/1 64/11/1
f 67/11/1 65/11/1 66/11/1
f 72/11/1 69/11/1 68/11/1
f 73/11/1 69/11/1 72/11/1
f 74/11/1 71/11/1 70/11/1
f 75/11/1 71/11/1 74/11/1
f 80/1/1 77/1/1 76/1/1
f 81/1/1 77/1/1 80/1/1
f 82/1/1 79/1/1 78/1/1
f 83/1/1 79/1/1 82/1/1
f 90/11/1 89/11/1 88/11/1
f 91/11/1 89/11/1 90/11/1
f 92/7/1 85/7/1 84/7/1
f 93/7/1 85/7/1 92/7/1
f 94/7/1 87/7/1 86/7/1
f 95/7/1 87/7/1 94/7/1
f 98/1/1 97/1/1 96/1/1
f 99/1/1 97/1/1 98/1/1
f 100/7/2 101/7/2 104/7/2
f 104/7/2 101/7/2 105/7/2
f 102/7/2 103/7/2 106/7/2
f 106/7/2 103/7/2 107/7/2
f 108/11/2 109/11/2 110/11/2
f 110/11/2 109/11/2 111/11/2
f 112/1/2 113/1/2 114/1/2
f 114/1/2 113/1/2 115/1/2
f 116/1/2 117/1/2 118/1/2
f 118/1/2 117/1/2 119/1/2
f 120/11/2 121/11/2 122/11/2
f 122/11/2 121/11/2 123/11/2
f 124/11/2 125/11/2 126/11/2
f 126/11/2 125/11/2 127/11/2
f 128/1/2 129/1/2 130/1/2
f 130/1/2 129/1/2 131/1/2
f 132/11/2 133/11/2 134/11/2
f 134/11/2 133/11/2 135/11/2
f 136/1/2 137/1/2 138/1/2
f 138/1/2 137/1/2 139/1/2
f 140/11/2 141/11/2 142/11/2
f 142/11/2 141/11/2 143/11/2
f 144/7/2 145/7/2 150/7/2
f 146/7/2 147/7/2 151/7/2
f 148/11/2 149/11/2 152/11/2
f 152/11/2 149/11/2 153/11/2
f 150/7/2 151/7/2 154/7/2
f 144/7/2 150/7/2 154/7/2
f 151/7/2 147/7/2 155/7/2
f 154/7/2 151/7/2 155/7/2
f 152/5/2 153/5/2 156/5/2
f 156/5/2 153/5/2 157/5/2
f 160/2/2 161/2/2 162/2/2
f 162/2/2 161/2/2 163/2/2
f 163/2/2 161/2/2 164/2/2
f 163/1/2 164/1/2 165/1/2
f 165/1/2 164/1/2 166/1/2
f 158/11/2 159/11/2 168/11/2
f 168/11/2 159/11/2 169/11/2
f 170/1/2 171/1/2 172/1/2
f 172/1/2 171/1/2 173/1/2
f 166/1/2 167/1/2 176/1/2
f 176/1/2 167/1/2 177/1/2
f 173/1/2 174/1/2 178/1/2
f 178/1/2 174/1/2 179/1/2
f 175/1/2 176/1/2 180/1/2
f 180/1/2 176/1/2 181/1/2
f 182/5/2 183/5/2 186/5/2
f 186/5/2 183/5/2 187/5/2
f 184/5/2 185/5/2 188/5/2
f 188/5/2 185/5/2 189/5/2
f 190/1/2 191/1/2 193/1/2
f 193/1/2 191/1/2 194/1/2
f 192/1/2 193/1/2 196/1/2
f 194/1/2 195/1/2 196/1/2
f 193/1/2 194/1/2 196/1/2
f 196/1/2 195/1/2 197/1/2
f 197/1/2 195/1/2 198/1/2
f 198/1/2 195/1/2 199/1/2
f 199/1/2 195/1/2 200/1/2
f 200/1/2 195/1/2 201/1/2
f 199/1/2 200/1/2 202/1/2
f 202/1/2 200/1/2 203/1/2
f 204/2/2 205/2/2 206/2/2
f 206/2/2 205/2/2 207/2/2
f 210/7/3 209/7/3 208/7/3
f 211/7/3 209/7/3 210/7/3
f 213/7/3 209/7/3 211/7/3
f 214/7/3 213/7/3 212/7/3
f 215/7/3 209/7/3 213/7/3
f 215/7/3 213/7/3 214/7/3
f 220/11/3 219/11/3 218/11/3
f 221/11/3 217/11/3 216/11/3
f 222/11/3 220/11/3 218/11/3
f 222/11/3 221/11/3 220/11/3
f 223/11/3 217/11/3 221/11/3
f 223/11/3 221/11/3 222/11/3
f 224/11/3 222/11/3 218/11/3
f 225/11/3 222/11/3 224/11/3
f 226/11/3 217/11/3 223/11/3
f 227/11/3 217/11/3 226/11/3
f 230/11/3 229/11/3 228/11/3
f 231/11/3 229/11/3 230/11/3
f 234/11/3 233/11/3 232/11/3
f 235/11/3 233/11/3 234/11/3
f 238/7/3 237/7/3 236/7/3
f 239/7/3 237/7/3 238/7/3
f 242/7/3 241/7/3 240/7/3
f 243/7/3 241/7/3 242/7/3
f 246/1/3 245/1/3 244/1/3
f 248/1/3 246/1/3 244/1/3
f 248/1/3 247/1/3 246/1/3
f 249/1/3 247/1/3 248/1/3
f 250/1/3 247/1/3 249/1/3
f 251/1/3 247/1/3 250/1/3
f 253/1/3 250/1/3 249/1/3
f 254/1/3 253/1/3 252/1/3
f 255/1/3 250/1/3 253/1/3
f 255/1/3 253/1/3 254/1/3
f 257/1/3 250/1/3 255/1/3
f 258/1/3 250/1/3 257/1/3
f 258/1/3 257/1/3 256/1/3
f 259/1/3 250/1/3 258/1/3
f 260/1/3 258/1/3 256/1/3
f 261/1/3 258/1/3 260/1/3
f 270/5/3 263/5/3 262/5/3
f 271/5/3 263/5/3 270/5/3
f 272/1/3 265/1/3 264/1/3
f 273/1/3 267/1/3 266/1/3
f 274/1/3 267/1/3 273/1/3
f 275/5/3 271/5/3 270/5/3
f 275/5/3 270/5/3 269/5/3
f 276/5/3 271/5/3 275/5/3
f 277/2/3 272/2/3 271/2/3
f 277/1/3 265/1/3 272/1/3
f 278/1/3 265/1/3 277/1/3
f 282/11/3 269/11/3 268/11/3
f 283/11/3 269/11/3 282/11/3
f 284/8/3 276/8/3 275/8/3
f 285/5/3 271/5/3 276/5/3
f 285/8/3 276/8/3 284/8/3
f 286/2/3 277/2/3 271/2/3
f 286/11/3 278/11/3 277/11/3
f 287/1/3 279/1/3 278/1/3
f 287/11/3 278/11/3 286/11/3
f 288/1/3 279/1/3 287/1/3
f 289/8/3 284/8/3 275/8/3
f 289/5/3 275/5/3 269/5/3
f 290/5/3 285/5/3 284/5/3
f 290/8/3 284/8/3 289/8/3
f 291/5/3 271/5/3 285/5/3
f 291/5/3 285/5/3 290/5/3
f 292/2/3 287/2/3 286/2/3
f 295/11/3 269/11/3 283/11/3
f 296/5/3 290/5/3 289/5/3
f 296/5/3 289/5/3 269/5/3
f 297/8/3 291/8/3 290/8/3
f 297/5/3 290/5/3 296/5/3
f 298/5/3 271/5/3 291/5/3
f 298/8/3 291/8/3 297/8/3
f 299/2/3 286/2/3 271/2/3
f 299/2/3 292/2/3 286/2/3
f 300/1/3 293/1/3 292/1/3
f 300/2/3 292/2/3 299/2/3
f 301/8/3 297/8/3 296/8/3
f 301/5/3 296/5/3 269/5/3
f 302/5/3 298/5/3 297/5/3
f 302/8/3 297/8/3 301/8/3
f 303/2/3 299/2/3 271/2/3
f 303/11/3 300/11/3 299/11/3
f 304/1/3 293/1/3 300/1/3
f 304/11/3 300/11/3 303/11/3
f 305/1/3 293/1/3 304/1/3
f 306/11/3 295/11/3 294/11/3
f 307/11/3 269/11/3 295/11/3
f 307/11/3 295/11/3 306/11/3
f 307/5/3 302/5/3 301/5/3
f 307/5/3 301/5/3 269/5/3
f 308/5/3 298/5/3 302/5/3
f 308/5/3 302/5/3 307/5/3
f 309/2/3 303/2/3 271/2/3
f 309/5/3 298/5/3 308/5/3
f 309/5/3 271/5/3 298/5/3
f 310/1/3 304/1/3 303/1/3
f 310/2/3 303/2/3 309/2/3
f 312/1/3 281/1/3 280/1/3
f 313/1/3 281/1/3 312/1/3
f 314/5/3 309/5/3 308/5/3
f 315/5/3 309/5/3 314/5/3
f 316/1/3 304/1/3 310/1/3
f 317/1/3 304/1/3 316/1/3
f 318/1/3 312/1/3 311/1/3
f 319/1/3 312/1/3 318/1/3
f 322/2/3 321/2/3 320/2/3
f 323/2/3 321/2/3 322/2/3
f 328/1/3 325/1/3 324/1/3
f 329/1/3 325/1/3 328/1/3
f 330/2/3 327/2/3 326/2/3
f 331/2/3 327/2/3 330/2/3
f 332/7/4 333/7/4 334/7/4
f 334/7/4 333/7/4 335/7/4
f 336/7/4 337/7/4 338/7/4
f 338/7/4 337/7/4 339/7/4
f 340/11/4 341/11/4 342/11/4
f 342/11/4 341/11/4 343/11/4
f 342/6/4 343/6/4 346/6/4
f 346/6/4 343/6/4 347/6/4
f 344/11/4 345/11/4 348/11/4
f 340/11/4 342/11/4 349/11/4
f 344/11/4 348/11/4 350/11/4
f 348/11/4 349/11/4 350/11/4
f 349/11/4 342/11/4 351/11/4
f 350/11/4 349/11/4 351/11/4
f 344/11/4 350/11/4 352/11/4
f 352/11/4 350/11/4 353/11/4
f 342/6/4 346/6/4 354/6/4
f 346/8/4 347/8/4 354/8/4
f 347/6/4 343/6/4 355/6/4
f 354/8/4 347/8/4 355/8/4
f 351/11/4 342/11/4 356/11/4
f 342/6/4 354/6/4 356/6/4
f 354/6/4 355/6/4 356/6/4
f 355/6/4 343/6/4 357/6/4
f 356/6/4 355/6/4 357/6/4
f 343/11/4 341/11/4 357/11/4
f 351/11/4 356/11/4 358/11/4
f 356/11/4 357/11/4 358/11/4
f 357/11/4 341/11/4 359/11/4
f 358/11/4 357/11/4 359/11/4
f 360/11/4 361/11/4 362/11/4
f 362/11/4 361/11/4 363/11/4
f 364/11/4 365/11/4 366/11/4
f 366/11/4 365/11/4 367/11/4
f 368/7/4 369/7/4 370/7/4
f 370/7/4 369/7/4 371/7/4
f 371/7/4 369/7/4 373/7/4
f 372/7/4 373/7/4 374/7/4
f 373/7/4 369/7/4 375/7/4
f 374/7/4 373/7/4 375/7/4
f 376/2/4 377/2/4 378/2/4
f 378/2/4 377/2/4 379/2/4
f 380/1/4 381/1/4 384/1/4
f 384/1/4 381/1/4 385/1/4
f 382/1/4 383/1/4 386/1/4
f 386/1/4 383/1/4 387/1/4
f 388/1/4 389/1/4 394/1/4
f 394/1/4 389/1/4 395/1/4
f 390/1/4 391/1/4 396/1/4
f 396/1/4 391/1/4 397/1/4
f 392/2/4 393/2/4 398/2/4
f 398/2/4 393/2/4 399/2/4
f 400/5/4 401/5/4 406/5/4
f 406/5/4 401/5/4 407/5/4
f 402/1/4 403/1/4 409/1/4
f 409/1/4 403/1/4 410/1/4
f 404/11/4 405/11/4 412/11/4
f 412/11/4 405/11/4 413/11/4
f 407/2/4 408/2/4 414/2/4
f 408/1/4 409/1/4 414/1/4
f 414/1/4 409/1/4 415/1/4
f 413/11/4 405/11/4 417/11/4
f 407/2/4 414/2/4 418/2/4
f 416/11/4 417/11/4 420/11/4
f 405/5/4 406/5/4 421/5/4
f 420/11/4 417/11/4 421/11/4
f 406/5/4 407/5/4 421/5/4
f 417/11/4 405/11/4 421/11/4
f 421/5/4 407/5/4 422/5/4
f 407/2/4 418/2/4 423/2/4
f 422/5/4 407/5/4 423/5/4
f 418/1/4 419/1/4 424/1/4
f 423/2/4 418/2/4 424/2/4
f 424/1/4 419/1/4 425/1/4
f 410/1/4 411/1/4 426/1/4
f 426/1/4 411/1/4 427/1/4
f 422/5/4 423/5/4 428/5/4
f 428/5/4 423/5/4 429/5/4
f 425/1/4 426/1/4 430/1/4
f 430/1/4 426/1/4 431/1/4
f 432/1/4 433/1/4 435/1/4
f 434/1/4 435/1/4 436/1/4
f 435/1/4 433/1/4 437/1/4
f 436/1/4 435/1/4 437/1/4
f 437/1/4 433/1/4 438/1/4
f 438/1/4 433/1/4 439/1/4
f 444/7/5 441/7/5 440/7/5
f 445/7/5 441/7/5 444/7/5
f 446/7/5 443/7/5 442/7/5
f 447/7/5 443/7/5 446/7/5
f 452/7/5 449/7/5 448/7/5
f 453/7/5 449/7/5 452/7/5
f 454/7/5 451/7/5 450/7/5
f 455/7/5 451/7/5 454/7/5
f 460/11/5 457/11/5 456/11/5
f 461/11/5 457/11/5 460/11/5
f 462/11/5 459/11/5 458/11/5
f 463/11/5 459/11/5 462/11/5
f 466/11/5 465/11/5 464/11/5
f 467/11/5 465/11/5 466/11/5
f 471/7/5 469/7/5 468/7/5
f 472/7/5 469/7/5 471/7/5
f 474/7/5 471/7/5 470/7/5
f 474/7/5 473/7/5 472/7/5
f 474/7/5 472/7/5 471/7/5
f 475/7/5 473/7/5 474/7/5
f 476/7/5 473/7/5 475/7/5
f 477/7/5 473/7/5 476/7/5
f 478/7/5 476/7/5 475/7/5
f 479/7/5 476/7/5 478/7/5
f 485/5/5 481/5/5 480/5/5
f 486/5/5 483/5/5 482/5/5
f 488/2/5 485/2/5 484/2/5
f 489/5/5 481/5/5 485/5/5
f 489/2/5 485/2/5 488/2/5
f 490/2/5 487/2/5 486/2/5
f 490/5/5 486/5/5 482/5/5
f 491/2/5 487/2/5 490/2/5
f 492/5/5 481/5/5 489/5/5
f 493/5/5 481/5/5 492/5/5
f 494/5/5 490/5/5 482/5/5
f 495/5/5 490/5/5 494/5/5
f 500/11/5 497/11/5 496/11/5
f 501/11/5 497/11/5 500/11/5
f 502/11/5 499/11/5 498/11/5
f 503/11/5 499/11/5 502/11/5
f 508/1/5 505/1/5 504/1/5
f 509/1/5 505/1/5 508/1/5
f 510/1/5 507/1/5 506/1/5
f 511/1/5 507/1/5 510/1/5
f 514/1/5 513/1/5 512/1/5
f 515/1/5 513/1/5 514/1/5
f 522/1/5 517/1/5 516/1/5
f 523/1/5 517/1/5 522/1/5
f 524/1/5 519/1/5 518/1/5
f 525/1/5 519/1/5 524/1/5
f 526/1/5 521/1/5 520/1/5
f 527/1/5 521/1/5 526/1/5
f 532/1/5 529/1/5 528/1/5
f 533/1/5 529/1/5 532/1/5
f 536/1/5 531/1/5 530/1/5
f 537/1/5 531/1/5 536/1/5
f 538/1/5 534/1/5 533/1/5
f 539/1/5 534/1/5 538/1/5
f 540/1/5 536/1/5 535/1/5
f 541/1/5 536/1/5 540/1/5
f 546/1/5 543/1/5 542/1/5
f 547/1/5 543/1/5 546/1/5
f 548/1/5 545/1/5 544/1/5
f 549/1/5 545/1/5 548/1/5
f 550/7/6 551/7/6 552/7/6
f 552/7/6 551/7/6 553/7/6
f 550/7/6 552/7/6 554/7/6
f 553/7/6 551/7/6 555/7/6
f 550/7/6 554/7/6 556/7/6
f 554/7/6 555/7/6 556/7/6
f 556/7/6 555/7/6 557/7/6
f 557/7/6 555/7/6 558/7/6
f 555/7/6 551/7/6 559/7/6
f 558/7/6 555/7/6 559/7/6
f 550/7/6 556/7/6 560/7/6
f 557/7/6 558/7/6 561/7/6
f 561/7/6 558/7/6 562/7/6
f 559/7/6 551/7/6 563/7/6
f 550/7/6 560/7/6 564/7/6
f 562/7/6 563/7/6 564/7/6
f 561/7/6 562/7/6 564/7/6
f 560/7/6 561/7/6 564/7/6
f 563/7/6 551/7/6 565/7/6
f 564/7/6 563/7/6 565/7/6
f 566/11/6 567/11/6 570/11/6
f 570/11/6 567/11/6 571/11/6
f 568/11/6 569/11/6 572/11/6
f 572/11/6 569/11/6 573/11/6
f 574/11/6 575/11/6 578/11/6
f 578/11/6 575/11/6 579/11/6
f 576/11/6 577/11/6 580/11/6
f 580/11/6 577/11/6 581/11/6
f 582/5/6 583/5/6 587/5/6
f 584/5/6 585/5/6 588/5/6
f 586/2/6 587/2/6 590/2/6
f 587/5/6 583/5/6 591/5/6
f 590/2/6 587/2/6 591/2/6
f 588/2/6 589/2/6 592/2/6
f 584/5/6 588/5/6 592/5/6
f 592/2/6 589/2/6 593/2/6
f 591/5/6 583/5/6 594/5/6
f 594/5/6 583/5/6 595/5/6
f 584/5/6 592/5/6 596/5/6
f 596/5/6 592/5/6 597/5/6
f 598/11/6 599/11/6 600/11/6
f 600/11/6 599/11/6 601/11/6
f 602/1/6 603/1/6 606/1/6
f 606/1/6 603/1/6 607/1/6
f 604/1/6 605/1/6 608/1/6
f 608/1/6 605/1/6 609/1/6
f 610/1/6 611/1/6 612/1/6
f 612/1/6 611/1/6 613/1/6
f 613/1/6 614/1/6 615/1/6
f 615/1/6 614/1/6 616/1/6
f 617/1/6 618/1/6 621/1/6
f 621/1/6 618/1/6 622/1/6
f 619/1/6 620/1/6 623/1/6
f 623/1/6 620/1/6 624/1/6
f 622/1/6 623/1/6 625/1/6
f 625/1/6 623/1/6 626/1/6
f 627/1/6 628/1/6 630/1/6
f 630/1/6 628/1/6 631/1/6
f 629/1/6 630/1/6 633/1/6
f 631/1/6 632/1/6 633/1/6
f 630/1/6 631/1/6 633/1/6
f 629/1/6 633/1/6 635/1/6
f 633/1/6 634/1/6 635/1/6
f 635/1/6 634/1/6 636/1/6
f 636/1/6 634/1/6 637/1/6
f 637/1/6 634/1/6 638/1/6
f 636/1/6 637/1/6 639/1/6
f 639/1/6 637/1/6 640/1/6
