# MagicaVoxel @ Ephtracy

# group
o 

# material
mtllib felipinho.mtl
usemtl palette

# normals
vn -1 0 0
vn 1 0 0
vn 0 0 1
vn 0 0 -1
vn 0 -1 0
vn 0 1 0

# texcoords
vt 0.0332031 0.5
vt 0.396484 0.5
vt 0.751953 0.5
vt 0.853516 0.5
vt 0.873047 0.5
vt 0.876953 0.5
vt 0.880859 0.5
vt 0.958984 0.5
vt 0.966797 0.5
vt 0.974609 0.5
vt 0.990234 0.5
vt 0.994141 0.5

# verts
v 0.5 2 -0.4
v 0.5 2 -0.5
v 0.5 2 -1.6
v 0.5 2 -1.7
v 0.5 2.8 -0.5
v 0.5 2.8 -1.6
v 0.5 2.9 -0.4
v 0.5 2.9 -1.7
v 0.7 2.9 -0.6
v 0.7 2.9 -0.8
v 0.7 3 -0.6
v 0.7 3 -0.8
v 0.7 3.2 -0.6
v 0.7 3.2 -0.8
v 0.7 3.3 -0.6
v 0.7 3.3 -0.8
v 0.8 2.9 -1.2
v 0.8 2.9 -1.3
v 0.8 2.9 -1.5
v 0.8 3 -1.2
v 0.8 3 -1.3
v 0.8 3 -1.5
v 0.9 3 -1.6
v 0.9 3 -2
v 0.9 3 -2.4
v 0.9 3.3 -1.6
v 0.9 3.3 -2
v 0.9 3.3 -2.4
v 1 3.5 -2.2
v 1 3.5 -2.8
v 1 3.6 -2
v 1 3.6 -2.2
v 1 3.7 -1.9
v 1 3.7 -2
v 1 4.1 -1.9
v 1 4.1 -2.8
v 1.1 2.9 -0.7
v 1.1 2.9 -1.6
v 1.1 3 -0.9
v 1.1 3 -1.6
v 1.1 3.3 -2
v 1.1 3.3 -2.4
v 1.1 3.3 -2.7
v 1.1 3.5 -1.9
v 1.1 3.5 -2
v 1.1 3.5 -2.2
v 1.1 3.5 -2.7
v 1.1 3.6 -2
v 1.1 3.6 -2.2
v 1.1 3.7 -0.7
v 1.1 3.7 -0.9
v 1.1 3.7 -1.9
v 1.1 3.7 -2
v 1.1 4.1 -2
v 1.1 4.1 -2.7
v 1.1 4.2 -2
v 1.1 4.2 -2.7
v 1.2 2 -2.1
v 1.2 2 -2.6
v 1.2 2.7 -2.1
v 1.2 2.7 -2.6
v 1.2 3 -2.1
v 1.2 3 -2.4
v 1.2 3.3 -2.4
v 1.2 3.3 -2.6
v 1.2 3.4 -2.7
v 1.2 3.4 -2.8
v 1.2 3.5 -2.7
v 1.2 3.5 -2.8
v 1.4 3.6 -1.9
v 1.4 3.6 -2
v 1.4 3.7 -2
v 1.4 3.8 -1.9
v 1.4 3.8 -2
v 1.7 2 -2.1
v 1.7 2 -2.6
v 1.7 2.5 -2.1
v 1.7 2.5 -2.6
v 1.7 3.7 -1.9
v 1.7 3.7 -2
v 1.7 3.8 -1.9
v 1.7 3.8 -2
v 2 3 -1.6
v 2 3 -2
v 2 3 -2.1
v 2 3.3 -1.6
v 2 3.3 -2
v 2 3.3 -2.1
v 2 3.6 -1.9
v 2 3.6 -2
v 2 3.8 -1.9
v 2 3.8 -2
v 2.3 2 -0.4
v 2.3 2 -0.5
v 2.3 2 -1.6
v 2.3 2 -1.7
v 2.3 2.8 -0.4
v 2.3 2.8 -0.5
v 2.3 2.8 -1.6
v 2.3 2.8 -1.7
v 0.6 2 -0.4
v 0.6 2 -0.5
v 0.6 2 -1.6
v 0.6 2 -1.7
v 0.6 2.8 -0.4
v 0.6 2.8 -0.5
v 0.6 2.8 -1.6
v 0.6 2.8 -1.7
v 0.9 2.9 -0.6
v 0.9 2.9 -0.8
v 0.9 3 -0.6
v 0.9 3 -0.8
v 0.9 3.2 -0.6
v 0.9 3.2 -0.8
v 0.9 3.3 -0.6
v 0.9 3.3 -0.8
v 1 2.9 -1.2
v 1 2.9 -1.3
v 1 2.9 -1.5
v 1 3 -1.2
v 1 3 -1.3
v 1 3 -1.5
v 1.2 3 -1.6
v 1.2 3 -2
v 1.2 3 -2.1
v 1.2 3.3 -1.6
v 1.2 3.3 -2
v 1.2 3.3 -2.1
v 1.2 3.6 -1.9
v 1.2 3.6 -2
v 1.2 3.8 -1.9
v 1.2 3.8 -2
v 1.5 2 -2.1
v 1.5 2 -2.6
v 1.5 2.5 -2.1
v 1.5 2.5 -2.6
v 1.5 3.7 -1.9
v 1.5 3.7 -2
v 1.5 3.8 -1.9
v 1.5 3.8 -2
v 1.8 3.6 -1.9
v 1.8 3.6 -2
v 1.8 3.7 -2
v 1.8 3.8 -1.9
v 1.8 3.8 -2
v 2 2 -2.1
v 2 2 -2.6
v 2 2.7 -2.1
v 2 2.7 -2.6
v 2 3 -2.1
v 2 3 -2.5
v 2 3.3 -2.5
v 2 3.3 -2.6
v 2 3.4 -2.7
v 2 3.4 -2.8
v 2 3.5 -2.7
v 2 3.5 -2.8
v 2.1 3.3 -2
v 2.1 3.3 -2.5
v 2.1 3.3 -2.7
v 2.1 3.5 -1.9
v 2.1 3.5 -2
v 2.1 3.5 -2.2
v 2.1 3.5 -2.7
v 2.1 3.6 -2
v 2.1 3.6 -2.2
v 2.1 3.7 -1.9
v 2.1 3.7 -2
v 2.1 4.1 -2
v 2.1 4.1 -2.7
v 2.1 4.2 -2
v 2.1 4.2 -2.7
v 2.2 2.9 -0.7
v 2.2 2.9 -1.6
v 2.2 3 -0.9
v 2.2 3 -1.6
v 2.2 3.5 -2.2
v 2.2 3.5 -2.8
v 2.2 3.6 -2
v 2.2 3.6 -2.2
v 2.2 3.7 -0.7
v 2.2 3.7 -0.9
v 2.2 3.7 -1.9
v 2.2 3.7 -2
v 2.2 4.1 -1.9
v 2.2 4.1 -2.8
v 2.3 3 -1.6
v 2.3 3 -2
v 2.3 3 -2.5
v 2.3 3.3 -1.6
v 2.3 3.3 -2
v 2.3 3.3 -2.5
v 2.4 2 -0.4
v 2.4 2 -0.5
v 2.4 2 -1.6
v 2.4 2 -1.7
v 2.4 2.8 -0.5
v 2.4 2.8 -1.6
v 2.4 2.9 -0.4
v 2.4 2.9 -1.7
v 0.5 2 -0.4
v 0.5 2.9 -0.4
v 0.6 2 -0.4
v 0.6 2.8 -0.4
v 2.3 2 -0.4
v 2.3 2.8 -0.4
v 2.4 2 -0.4
v 2.4 2.9 -0.4
v 0.7 2.9 -0.6
v 0.7 3 -0.6
v 0.7 3.2 -0.6
v 0.7 3.3 -0.6
v 0.9 2.9 -0.6
v 0.9 3 -0.6
v 0.9 3.2 -0.6
v 0.9 3.3 -0.6
v 1.1 2.9 -0.7
v 1.1 3.7 -0.7
v 2.2 2.9 -0.7
v 2.2 3.7 -0.7
v 0.8 2.9 -1.2
v 0.8 3 -1.2
v 1 2.9 -1.2
v 1 3 -1.2
v 0.5 2 -1.6
v 0.5 2.8 -1.6
v 0.6 2 -1.6
v 0.6 2.8 -1.6
v 0.9 3 -1.6
v 0.9 3.3 -1.6
v 1.1 3 -1.6
v 1.2 3 -1.6
v 1.2 3.3 -1.6
v 2 3 -1.6
v 2 3.3 -1.6
v 2.2 3 -1.6
v 2.3 2 -1.6
v 2.3 2.8 -1.6
v 2.3 3 -1.6
v 2.3 3.3 -1.6
v 2.4 2 -1.6
v 2.4 2.8 -1.6
v 1 3.7 -1.9
v 1 4.1 -1.9
v 1.1 3.5 -1.9
v 1.1 3.7 -1.9
v 1.1 3.9 -1.9
v 1.2 3.6 -1.9
v 1.2 3.8 -1.9
v 1.4 3.6 -1.9
v 1.4 3.8 -1.9
v 1.5 3.5 -1.9
v 1.5 3.6 -1.9
v 1.5 3.7 -1.9
v 1.5 3.8 -1.9
v 1.5 3.9 -1.9
v 1.7 3.5 -1.9
v 1.7 3.6 -1.9
v 1.7 3.7 -1.9
v 1.7 3.8 -1.9
v 1.7 3.9 -1.9
v 1.8 3.6 -1.9
v 1.8 3.8 -1.9
v 2 3.6 -1.9
v 2 3.8 -1.9
v 2.1 3.5 -1.9
v 2.1 3.7 -1.9
v 2.1 3.9 -1.9
v 2.2 3.7 -1.9
v 2.2 4.1 -1.9
v 1 3.6 -2
v 1 3.7 -2
v 1.1 3.3 -2
v 1.1 3.5 -2
v 1.1 3.6 -2
v 1.1 3.7 -2
v 1.1 4.1 -2
v 1.1 4.2 -2
v 1.2 3.3 -2
v 1.2 3.6 -2
v 1.2 3.8 -2
v 1.3 3.7 -2
v 1.3 3.8 -2
v 1.4 3.6 -2
v 1.4 3.7 -2
v 1.4 3.8 -2
v 1.5 3.5 -2
v 1.5 3.7 -2
v 1.5 3.8 -2
v 1.7 3.5 -2
v 1.7 3.7 -2
v 1.7 3.8 -2
v 1.8 3.6 -2
v 1.8 3.7 -2
v 1.8 3.8 -2
v 1.9 3.7 -2
v 1.9 3.8 -2
v 2 3.3 -2
v 2 3.6 -2
v 2 3.8 -2
v 2.1 3.3 -2
v 2.1 3.5 -2
v 2.1 3.6 -2
v 2.1 3.7 -2
v 2.1 4.1 -2
v 2.1 4.2 -2
v 2.2 3.6 -2
v 2.2 3.7 -2
v 1.2 2 -2.1
v 1.2 2.7 -2.1
v 1.2 3 -2.1
v 1.2 3.3 -2.1
v 1.5 2 -2.1
v 1.5 2.5 -2.1
v 1.7 2 -2.1
v 1.7 2.5 -2.1
v 2 2 -2.1
v 2 2.7 -2.1
v 2 3 -2.1
v 2 3.3 -2.1
v 1 3.5 -2.2
v 1 3.6 -2.2
v 1.1 3.5 -2.2
v 1.1 3.6 -2.2
v 2.1 3.5 -2.2
v 2.1 3.6 -2.2
v 2.2 3.5 -2.2
v 2.2 3.6 -2.2
v 0.5 2 -0.5
v 0.5 2.8 -0.5
v 0.6 2 -0.5
v 0.6 2.8 -0.5
v 2.3 2 -0.5
v 2.3 2.8 -0.5
v 2.4 2 -0.5
v 2.4 2.8 -0.5
v 0.7 2.9 -0.8
v 0.7 3 -0.8
v 0.7 3.2 -0.8
v 0.7 3.3 -0.8
v 0.9 2.9 -0.8
v 0.9 3 -0.8
v 0.9 3.2 -0.8
v 0.9 3.3 -0.8
v 1.1 3 -0.9
v 1.1 3.7 -0.9
v 1.2 3.1 -0.9
v 1.2 3.6 -0.9
v 1.3 3.2 -0.9
v 1.3 3.3 -0.9
v 1.4 3.2 -0.9
v 1.4 3.3 -0.9
v 1.5 3.2 -0.9
v 1.5 3.3 -0.9
v 1.7 3.2 -0.9
v 1.7 3.3 -0.9
v 1.8 3.2 -0.9
v 1.8 3.3 -0.9
v 1.8 3.4 -0.9
v 1.8 3.5 -0.9
v 2 3.2 -0.9
v 2 3.3 -0.9
v 2 3.4 -0.9
v 2 3.5 -0.9
v 2.1 3.1 -0.9
v 2.1 3.6 -0.9
v 2.2 3 -0.9
v 2.2 3.7 -0.9
v 0.8 2.9 -1.5
v 0.8 3 -1.5
v 1 2.9 -1.5
v 1 3 -1.5
v 1.1 2.9 -1.6
v 1.1 3 -1.6
v 1.2 3 -1.6
v 2 3 -1.6
v 2.2 2.9 -1.6
v 2.2 3 -1.6
v 0.5 2 -1.7
v 0.5 2.9 -1.7
v 0.6 2 -1.7
v 0.6 2.8 -1.7
v 2.3 2 -1.7
v 2.3 2.8 -1.7
v 2.4 2 -1.7
v 2.4 2.9 -1.7
v 0.9 3 -2.4
v 0.9 3.3 -2.4
v 1.1 3.3 -2.4
v 1.2 3 -2.4
v 1.2 3.3 -2.4
v 2 3 -2.5
v 2 3.3 -2.5
v 2.1 3.3 -2.5
v 2.3 3 -2.5
v 2.3 3.3 -2.5
v 1.2 2 -2.6
v 1.2 2.7 -2.6
v 1.2 3.3 -2.6
v 1.5 2 -2.6
v 1.5 2.5 -2.6
v 1.7 2 -2.6
v 1.7 2.5 -2.6
v 2 2 -2.6
v 2 2.7 -2.6
v 2 3.3 -2.6
v 1.1 3.3 -2.7
v 1.1 3.5 -2.7
v 1.1 4.1 -2.7
v 1.1 4.2 -2.7
v 1.2 3.4 -2.7
v 1.2 3.5 -2.7
v 2 3.4 -2.7
v 2 3.5 -2.7
v 2.1 3.3 -2.7
v 2.1 3.5 -2.7
v 2.1 4.1 -2.7
v 2.1 4.2 -2.7
v 1 3.5 -2.8
v 1 4.1 -2.8
v 1.2 3.4 -2.8
v 1.2 3.5 -2.8
v 2 3.4 -2.8
v 2 3.5 -2.8
v 2.2 3.5 -2.8
v 2.2 4.1 -2.8
v 0.5 2 -0.4
v 0.6 2 -0.4
v 2.3 2 -0.4
v 2.4 2 -0.4
v 0.5 2 -0.5
v 0.6 2 -0.5
v 2.3 2 -0.5
v 2.4 2 -0.5
v 0.5 2 -1.6
v 0.6 2 -1.6
v 2.3 2 -1.6
v 2.4 2 -1.6
v 0.5 2 -1.7
v 0.6 2 -1.7
v 2.3 2 -1.7
v 2.4 2 -1.7
v 1.2 2 -2.1
v 1.5 2 -2.1
v 1.7 2 -2.1
v 2 2 -2.1
v 1.2 2 -2.6
v 1.5 2 -2.6
v 1.7 2 -2.6
v 2 2 -2.6
v 1.5 2.5 -2.1
v 1.7 2.5 -2.1
v 1.5 2.5 -2.6
v 1.7 2.5 -2.6
v 0.6 2.8 -0.4
v 2.3 2.8 -0.4
v 0.5 2.8 -0.5
v 0.6 2.8 -0.5
v 2.3 2.8 -0.5
v 2.4 2.8 -0.5
v 0.5 2.8 -1.6
v 0.6 2.8 -1.6
v 2.3 2.8 -1.6
v 2.4 2.8 -1.6
v 0.6 2.8 -1.7
v 2.3 2.8 -1.7
v 0.9 3 -1.6
v 1.1 3 -1.6
v 1.2 3 -1.6
v 2 3 -1.6
v 2.2 3 -1.6
v 2.3 3 -1.6
v 0.9 3 -2
v 1.2 3 -2
v 2 3 -2
v 2.3 3 -2
v 1.2 3 -2.1
v 2 3 -2.1
v 0.9 3 -2.4
v 1.2 3 -2.4
v 2 3 -2.5
v 2.3 3 -2.5
v 1.2 3.3 -2
v 2 3.3 -2
v 1.2 3.3 -2.1
v 2 3.3 -2.1
v 1.1 3.3 -2.4
v 1.2 3.3 -2.4
v 2 3.3 -2.5
v 2.1 3.3 -2.5
v 1.2 3.3 -2.6
v 2 3.3 -2.6
v 1.1 3.3 -2.7
v 2.1 3.3 -2.7
v 1.2 3.4 -2.7
v 2 3.4 -2.7
v 1.2 3.4 -2.8
v 2 3.4 -2.8
v 1.1 3.5 -1.9
v 1.5 3.5 -1.9
v 1.7 3.5 -1.9
v 2.1 3.5 -1.9
v 1.1 3.5 -2
v 1.5 3.5 -2
v 1.7 3.5 -2
v 2.1 3.5 -2
v 1 3.5 -2.2
v 1.1 3.5 -2.2
v 2.1 3.5 -2.2
v 2.2 3.5 -2.2
v 1.1 3.5 -2.7
v 1.2 3.5 -2.7
v 2 3.5 -2.7
v 2.1 3.5 -2.7
v 1 3.5 -2.8
v 1.2 3.5 -2.8
v 2 3.5 -2.8
v 2.2 3.5 -2.8
v 1 3.6 -2
v 1.1 3.6 -2
v 2.1 3.6 -2
v 2.2 3.6 -2
v 1 3.6 -2.2
v 1.1 3.6 -2.2
v 2.1 3.6 -2.2
v 2.2 3.6 -2.2
v 1 3.7 -1.9
v 1.1 3.7 -1.9
v 2.1 3.7 -1.9
v 2.2 3.7 -1.9
v 1 3.7 -2
v 1.1 3.7 -2
v 2.1 3.7 -2
v 2.2 3.7 -2
v 1.2 3.8 -1.9
v 1.4 3.8 -1.9
v 1.5 3.8 -1.9
v 1.7 3.8 -1.9
v 1.8 3.8 -1.9
v 2 3.8 -1.9
v 1.2 3.8 -2
v 1.3 3.8 -2
v 1.4 3.8 -2
v 1.5 3.8 -2
v 1.7 3.8 -2
v 1.8 3.8 -2
v 1.9 3.8 -2
v 2 3.8 -2
v 0.5 2.9 -0.4
v 2.4 2.9 -0.4
v 0.7 2.9 -0.6
v 0.9 2.9 -0.6
v 1.1 2.9 -0.7
v 2.2 2.9 -0.7
v 0.7 2.9 -0.8
v 0.9 2.9 -0.8
v 0.8 2.9 -1.2
v 1 2.9 -1.2
v 0.8 2.9 -1.3
v 1 2.9 -1.3
v 0.8 2.9 -1.5
v 1 2.9 -1.5
v 1.1 2.9 -1.6
v 2.2 2.9 -1.6
v 0.5 2.9 -1.7
v 2.4 2.9 -1.7
v 1.1 3 -0.9
v 2.2 3 -0.9
v 1.2 3 -1
v 2.1 3 -1
v 1.3 3 -1.1
v 1.4 3 -1.1
v 1.5 3 -1.1
v 1.6 3 -1.1
v 1.7 3 -1.1
v 1.8 3 -1.1
v 1.9 3 -1.1
v 2 3 -1.1
v 0.8 3 -1.2
v 1 3 -1.2
v 1.3 3 -1.2
v 1.4 3 -1.2
v 1.5 3 -1.2
v 1.6 3 -1.2
v 1.7 3 -1.2
v 1.8 3 -1.2
v 1.9 3 -1.2
v 2 3 -1.2
v 0.8 3 -1.3
v 1 3 -1.3
v 1.3 3 -1.3
v 1.4 3 -1.3
v 1.5 3 -1.3
v 1.6 3 -1.3
v 1.7 3 -1.3
v 1.8 3 -1.3
v 1.9 3 -1.3
v 2 3 -1.3
v 1.3 3 -1.4
v 1.4 3 -1.4
v 1.5 3 -1.4
v 1.6 3 -1.4
v 1.7 3 -1.4
v 1.8 3 -1.4
v 1.9 3 -1.4
v 2 3 -1.4
v 0.8 3 -1.5
v 1 3 -1.5
v 1.2 3 -1.5
v 2.1 3 -1.5
v 1.1 3 -1.6
v 1.2 3 -1.6
v 2 3 -1.6
v 2.2 3 -1.6
v 0.7 3.3 -0.6
v 0.9 3.3 -0.6
v 0.7 3.3 -0.8
v 0.9 3.3 -0.8
v 0.9 3.3 -1.6
v 1.2 3.3 -1.6
v 2 3.3 -1.6
v 2.3 3.3 -1.6
v 0.9 3.3 -2
v 1.1 3.3 -2
v 1.2 3.3 -2
v 2 3.3 -2
v 2.1 3.3 -2
v 2.3 3.3 -2
v 0.9 3.3 -2.4
v 1.1 3.3 -2.4
v 2.1 3.3 -2.5
v 2.3 3.3 -2.5
v 1.2 3.6 -1.9
v 1.4 3.6 -1.9
v 1.8 3.6 -1.9
v 2 3.6 -1.9
v 1.2 3.6 -2
v 1.4 3.6 -2
v 1.8 3.6 -2
v 2 3.6 -2
v 1.1 3.7 -0.7
v 2.2 3.7 -0.7
v 1.1 3.7 -0.9
v 2.2 3.7 -0.9
v 1.5 3.7 -1.9
v 1.7 3.7 -1.9
v 1.5 3.7 -2
v 1.7 3.7 -2
v 1 4.1 -1.9
v 2.2 4.1 -1.9
v 1.1 4.1 -2
v 2.1 4.1 -2
v 1.1 4.1 -2.7
v 2.1 4.1 -2.7
v 1 4.1 -2.8
v 2.2 4.1 -2.8
v 1.1 4.2 -2
v 2.1 4.2 -2
v 1.1 4.2 -2.7
v 2.1 4.2 -2.7

# faces
f 5/5/1 2/5/1 1/5/1
f 6/5/1 4/5/1 3/5/1
f 7/5/1 5/5/1 1/5/1
f 7/5/1 6/5/1 5/5/1
f 8/5/1 4/5/1 6/5/1
f 8/5/1 6/5/1 7/5/1
f 11/10/1 10/10/1 9/10/1
f 12/10/1 10/10/1 11/10/1
f 13/4/1 12/4/1 11/4/1
f 14/4/1 12/4/1 13/4/1
f 15/10/1 14/10/1 13/10/1
f 16/10/1 14/10/1 15/10/1
f 20/9/1 18/9/1 17/9/1
f 21/8/1 19/8/1 18/8/1
f 21/9/1 18/9/1 20/9/1
f 22/8/1 19/8/1 21/8/1
f 26/1/1 24/1/1 23/1/1
f 27/3/1 25/3/1 24/3/1
f 27/1/1 24/1/1 26/1/1
f 28/3/1 25/3/1 27/3/1
f 32/2/1 30/2/1 29/2/1
f 34/2/1 32/2/1 31/2/1
f 35/2/1 34/2/1 33/2/1
f 36/2/1 30/2/1 32/2/1
f 36/2/1 34/2/1 35/2/1
f 36/2/1 32/2/1 34/2/1
f 39/8/1 38/8/1 37/8/1
f 40/8/1 38/8/1 39/8/1
f 45/1/1 42/1/1 41/1/1
f 45/1/1 43/1/1 42/1/1
f 46/1/1 43/1/1 45/1/1
f 47/1/1 43/1/1 46/1/1
f 48/12/1 45/12/1 44/12/1
f 48/1/1 46/1/1 45/1/1
f 49/1/1 46/1/1 48/1/1
f 50/8/1 39/8/1 37/8/1
f 51/8/1 39/8/1 50/8/1
f 52/12/1 48/12/1 44/12/1
f 53/12/1 48/12/1 52/12/1
f 56/2/1 55/2/1 54/2/1
f 57/2/1 55/2/1 56/2/1
f 60/11/1 59/11/1 58/11/1
f 61/11/1 59/11/1 60/11/1
f 62/3/1 61/3/1 60/3/1
f 63/3/1 61/3/1 62/3/1
f 64/3/1 61/3/1 63/3/1
f 65/3/1 61/3/1 64/3/1
f 68/2/1 67/2/1 66/2/1
f 69/2/1 67/2/1 68/2/1
f 72/12/1 71/12/1 70/12/1
f 73/12/1 72/12/1 70/12/1
f 74/12/1 72/12/1 73/12/1
f 77/11/1 76/11/1 75/11/1
f 78/11/1 76/11/1 77/11/1
f 81/12/1 80/12/1 79/12/1
f 82/12/1 80/12/1 81/12/1
f 86/1/1 84/1/1 83/1/1
f 87/3/1 85/3/1 84/3/1
f 87/1/1 84/1/1 86/1/1
f 88/3/1 85/3/1 87/3/1
f 91/12/1 90/12/1 89/12/1
f 92/12/1 90/12/1 91/12/1
f 97/5/1 94/5/1 93/5/1
f 98/5/1 94/5/1 97/5/1
f 99/5/1 96/5/1 95/5/1
f 100/5/1 96/5/1 99/5/1
f 101/5/2 102/5/2 105/5/2
f 105/5/2 102/5/2 106/5/2
f 103/5/2 104/5/2 107/5/2
f 107/5/2 104/5/2 108/5/2
f 109/10/2 110/10/2 111/10/2
f 111/10/2 110/10/2 112/10/2
f 111/4/2 112/4/2 113/4/2
f 113/4/2 112/4/2 114/4/2
f 113/10/2 114/10/2 115/10/2
f 115/10/2 114/10/2 116/10/2
f 117/9/2 118/9/2 120/9/2
f 118/8/2 119/8/2 121/8/2
f 120/9/2 118/9/2 121/9/2
f 121/8/2 119/8/2 122/8/2
f 123/1/2 124/1/2 126/1/2
f 124/3/2 125/3/2 127/3/2
f 126/1/2 124/1/2 127/1/2
f 127/3/2 125/3/2 128/3/2
f 129/12/2 130/12/2 131/12/2
f 131/12/2 130/12/2 132/12/2
f 133/11/2 134/11/2 135/11/2
f 135/11/2 134/11/2 136/11/2
f 137/12/2 138/12/2 139/12/2
f 139/12/2 138/12/2 140/12/2
f 141/12/2 142/12/2 143/12/2
f 141/12/2 143/12/2 144/12/2
f 144/12/2 143/12/2 145/12/2
f 146/11/2 147/11/2 148/11/2
f 148/11/2 147/11/2 149/11/2
f 148/3/2 149/3/2 150/3/2
f 150/3/2 149/3/2 151/3/2
f 151/3/2 149/3/2 152/3/2
f 152/3/2 149/3/2 153/3/2
f 154/2/2 155/2/2 156/2/2
f 156/2/2 155/2/2 157/2/2
f 158/1/2 159/1/2 162/1/2
f 159/1/2 160/1/2 162/1/2
f 162/1/2 160/1/2 163/1/2
f 163/1/2 160/1/2 164/1/2
f 161/12/2 162/12/2 165/12/2
f 162/1/2 163/1/2 165/1/2
f 165/1/2 163/1/2 166/1/2
f 161/12/2 165/12/2 167/12/2
f 167/12/2 165/12/2 168/12/2
f 169/2/2 170/2/2 171/2/2
f 171/2/2 170/2/2 172/2/2
f 173/8/2 174/8/2 175/8/2
f 175/8/2 174/8/2 176/8/2
f 177/2/2 178/2/2 180/2/2
f 173/8/2 175/8/2 181/8/2
f 181/8/2 175/8/2 182/8/2
f 179/2/2 180/2/2 184/2/2
f 183/2/2 184/2/2 185/2/2
f 184/2/2 180/2/2 186/2/2
f 185/2/2 184/2/2 186/2/2
f 180/2/2 178/2/2 186/2/2
f 187/1/2 188/1/2 190/1/2
f 188/3/2 189/3/2 191/3/2
f 190/1/2 188/1/2 191/1/2
f 191/3/2 189/3/2 192/3/2
f 193/5/2 194/5/2 197/5/2
f 195/5/2 196/5/2 198/5/2
f 193/5/2 197/5/2 199/5/2
f 197/5/2 198/5/2 199/5/2
f 198/5/2 196/5/2 200/5/2
f 199/5/2 198/5/2 200/5/2
f 203/5/3 202/5/3 201/5/3
f 204/5/3 202/5/3 203/5/3
f 206/5/3 202/5/3 204/5/3
f 207/5/3 206/5/3 205/5/3
f 208/5/3 202/5/3 206/5/3
f 208/5/3 206/5/3 207/5/3
f 213/10/3 210/10/3 209/10/3
f 214/4/3 211/4/3 210/4/3
f 214/10/3 210/10/3 213/10/3
f 215/10/3 212/10/3 211/10/3
f 215/4/3 211/4/3 214/4/3
f 216/10/3 212/10/3 215/10/3
f 219/8/3 218/8/3 217/8/3
f 220/8/3 218/8/3 219/8/3
f 223/9/3 222/9/3 221/9/3
f 224/9/3 222/9/3 223/9/3
f 227/5/3 226/5/3 225/5/3
f 228/5/3 226/5/3 227/5/3
f 231/1/3 230/1/3 229/1/3
f 232/1/3 230/1/3 231/1/3
f 233/1/3 230/1/3 232/1/3
f 236/1/3 235/1/3 234/1/3
f 239/1/3 235/1/3 236/1/3
f 240/1/3 235/1/3 239/1/3
f 241/5/3 238/5/3 237/5/3
f 242/5/3 238/5/3 241/5/3
f 246/2/3 244/2/3 243/2/3
f 247/2/3 244/2/3 246/2/3
f 248/12/3 246/12/3 245/12/3
f 248/12/3 247/12/3 246/12/3
f 249/12/3 247/12/3 248/12/3
f 250/12/3 248/12/3 245/12/3
f 251/12/3 247/12/3 249/12/3
f 252/12/3 250/12/3 245/12/3
f 252/12/3 251/12/3 250/12/3
f 253/12/3 251/12/3 252/12/3
f 254/12/3 251/12/3 253/12/3
f 255/12/3 247/12/3 251/12/3
f 255/12/3 251/12/3 254/12/3
f 256/2/3 244/2/3 247/2/3
f 256/12/3 247/12/3 255/12/3
f 257/1/3 253/1/3 252/1/3
f 258/12/3 254/12/3 253/12/3
f 258/1/3 253/1/3 257/1/3
f 259/12/3 254/12/3 258/12/3
f 260/2/3 256/2/3 255/2/3
f 261/2/3 244/2/3 256/2/3
f 261/2/3 256/2/3 260/2/3
f 262/12/3 260/12/3 259/12/3
f 262/12/3 259/12/3 258/12/3
f 262/12/3 261/12/3 260/12/3
f 262/12/3 258/12/3 257/12/3
f 263/12/3 261/12/3 262/12/3
f 264/12/3 262/12/3 257/12/3
f 265/12/3 261/12/3 263/12/3
f 266/12/3 264/12/3 257/12/3
f 266/12/3 265/12/3 264/12/3
f 267/12/3 265/12/3 266/12/3
f 268/2/3 244/2/3 261/2/3
f 268/12/3 265/12/3 267/12/3
f 268/12/3 261/12/3 265/12/3
f 269/2/3 268/2/3 267/2/3
f 270/2/3 244/2/3 268/2/3
f 270/2/3 268/2/3 269/2/3
f 275/2/3 272/2/3 271/2/3
f 276/2/3 272/2/3 275/2/3
f 279/1/3 274/1/3 273/1/3
f 282/6/3 281/6/3 280/6/3
f 283/6/3 281/6/3 282/6/3
f 284/6/3 282/6/3 280/6/3
f 285/8/3 283/8/3 282/8/3
f 285/6/3 282/6/3 284/6/3
f 286/8/3 283/8/3 285/8/3
f 287/1/3 274/1/3 279/1/3
f 290/1/3 287/1/3 279/1/3
f 291/1/3 289/1/3 288/1/3
f 292/1/3 289/1/3 291/1/3
f 296/6/3 294/6/3 293/6/3
f 296/8/3 295/8/3 294/8/3
f 297/8/3 295/8/3 296/8/3
f 298/1/3 290/1/3 279/1/3
f 299/6/3 296/6/3 293/6/3
f 299/6/3 297/6/3 296/6/3
f 300/6/3 297/6/3 299/6/3
f 301/1/3 290/1/3 298/1/3
f 302/1/3 290/1/3 301/1/3
f 305/2/3 278/2/3 277/2/3
f 306/2/3 278/2/3 305/2/3
f 307/2/3 304/2/3 303/2/3
f 308/2/3 304/2/3 307/2/3
f 313/11/3 310/11/3 309/11/3
f 314/11/3 310/11/3 313/11/3
f 316/11/3 310/11/3 314/11/3
f 317/11/3 316/11/3 315/11/3
f 318/3/3 312/3/3 311/3/3
f 318/11/3 316/11/3 317/11/3
f 318/3/3 311/3/3 310/3/3
f 318/11/3 310/11/3 316/11/3
f 319/3/3 312/3/3 318/3/3
f 320/3/3 312/3/3 319/3/3
f 323/2/3 322/2/3 321/2/3
f 324/2/3 322/2/3 323/2/3
f 327/2/3 326/2/3 325/2/3
f 328/2/3 326/2/3 327/2/3
f 329/5/4 330/5/4 331/5/4
f 331/5/4 330/5/4 332/5/4
f 333/5/4 334/5/4 335/5/4
f 335/5/4 334/5/4 336/5/4
f 337/10/4 338/10/4 341/10/4
f 338/4/4 339/4/4 342/4/4
f 341/10/4 338/10/4 342/10/4
f 339/10/4 340/10/4 343/10/4
f 342/4/4 339/4/4 343/4/4
f 343/10/4 340/10/4 344/10/4
f 345/8/4 346/8/4 347/8/4
f 347/8/4 346/8/4 348/8/4
f 347/12/4 348/12/4 349/12/4
f 349/12/4 348/12/4 350/12/4
f 347/12/4 349/12/4 351/12/4
f 349/7/4 350/7/4 351/7/4
f 350/12/4 348/12/4 352/12/4
f 351/7/4 350/7/4 352/7/4
f 347/12/4 351/12/4 353/12/4
f 351/12/4 352/12/4 353/12/4
f 352/12/4 348/12/4 354/12/4
f 353/12/4 352/12/4 354/12/4
f 347/12/4 353/12/4 355/12/4
f 353/7/4 354/7/4 355/7/4
f 354/12/4 348/12/4 356/12/4
f 355/7/4 354/7/4 356/7/4
f 347/12/4 355/12/4 357/12/4
f 355/12/4 356/12/4 357/12/4
f 356/12/4 348/12/4 358/12/4
f 357/12/4 356/12/4 358/12/4
f 358/12/4 348/12/4 359/12/4
f 359/12/4 348/12/4 360/12/4
f 347/12/4 357/12/4 361/12/4
f 357/7/4 358/7/4 361/7/4
f 358/12/4 359/12/4 362/12/4
f 361/7/4 358/7/4 362/7/4
f 359/7/4 360/7/4 363/7/4
f 362/12/4 359/12/4 363/12/4
f 360/12/4 348/12/4 364/12/4
f 363/7/4 360/7/4 364/7/4
f 345/8/4 347/8/4 365/8/4
f 362/12/4 363/12/4 365/12/4
f 363/12/4 364/12/4 365/12/4
f 347/12/4 361/12/4 365/12/4
f 361/12/4 362/12/4 365/12/4
f 364/12/4 348/12/4 366/12/4
f 365/12/4 364/12/4 366/12/4
f 348/8/4 346/8/4 366/8/4
f 345/8/4 365/8/4 367/8/4
f 365/8/4 366/8/4 367/8/4
f 366/8/4 346/8/4 368/8/4
f 367/8/4 366/8/4 368/8/4
f 369/8/4 370/8/4 371/8/4
f 371/8/4 370/8/4 372/8/4
f 373/8/4 374/8/4 375/8/4
f 373/8/4 375/8/4 376/8/4
f 373/8/4 376/8/4 377/8/4
f 377/8/4 376/8/4 378/8/4
f 379/5/4 380/5/4 381/5/4
f 381/5/4 380/5/4 382/5/4
f 382/5/4 380/5/4 384/5/4
f 383/5/4 384/5/4 385/5/4
f 384/5/4 380/5/4 386/5/4
f 385/5/4 384/5/4 386/5/4
f 387/3/4 388/3/4 389/3/4
f 387/3/4 389/3/4 390/3/4
f 390/3/4 389/3/4 391/3/4
f 392/3/4 393/3/4 394/3/4
f 392/3/4 394/3/4 395/3/4
f 395/3/4 394/3/4 396/3/4
f 397/11/4 398/11/4 400/11/4
f 400/11/4 398/11/4 401/11/4
f 401/11/4 398/11/4 403/11/4
f 402/11/4 403/11/4 404/11/4
f 398/3/4 399/3/4 405/3/4
f 404/11/4 403/11/4 405/11/4
f 403/11/4 398/11/4 405/11/4
f 405/3/4 399/3/4 406/3/4
f 407/1/4 408/1/4 411/1/4
f 411/1/4 408/1/4 412/1/4
f 407/1/4 411/1/4 413/1/4
f 407/1/4 413/1/4 415/1/4
f 413/1/4 414/1/4 415/1/4
f 415/1/4 414/1/4 416/1/4
f 409/2/4 410/2/4 417/2/4
f 417/2/4 410/2/4 418/2/4
f 419/2/4 420/2/4 422/2/4
f 421/2/4 422/2/4 423/2/4
f 422/2/4 420/2/4 424/2/4
f 423/2/4 422/2/4 424/2/4
f 424/2/4 420/2/4 425/2/4
f 425/2/4 420/2/4 426/2/4
f 431/5/5 428/5/5 427/5/5
f 432/5/5 428/5/5 431/5/5
f 433/5/5 430/5/5 429/5/5
f 434/5/5 430/5/5 433/5/5
f 439/5/5 436/5/5 435/5/5
f 440/5/5 436/5/5 439/5/5
f 441/5/5 438/5/5 437/5/5
f 442/5/5 438/5/5 441/5/5
f 447/11/5 444/11/5 443/11/5
f 448/11/5 444/11/5 447/11/5
f 449/11/5 446/11/5 445/11/5
f 450/11/5 446/11/5 449/11/5
f 453/11/5 452/11/5 451/11/5
f 454/11/5 452/11/5 453/11/5
f 458/5/5 456/5/5 455/5/5
f 459/5/5 456/5/5 458/5/5
f 461/5/5 458/5/5 457/5/5
f 461/5/5 460/5/5 459/5/5
f 461/5/5 459/5/5 458/5/5
f 462/5/5 460/5/5 461/5/5
f 463/5/5 460/5/5 462/5/5
f 464/5/5 460/5/5 463/5/5
f 465/5/5 463/5/5 462/5/5
f 466/5/5 463/5/5 465/5/5
f 473/1/5 468/1/5 467/1/5
f 473/1/5 469/1/5 468/1/5
f 474/1/5 469/1/5 473/1/5
f 475/1/5 472/1/5 471/1/5
f 475/1/5 471/1/5 470/1/5
f 476/1/5 472/1/5 475/1/5
f 477/3/5 474/3/5 473/3/5
f 478/3/5 476/3/5 475/3/5
f 479/3/5 477/3/5 473/3/5
f 480/3/5 477/3/5 479/3/5
f 481/3/5 476/3/5 478/3/5
f 482/3/5 476/3/5 481/3/5
f 485/1/5 484/1/5 483/1/5
f 486/1/5 484/1/5 485/1/5
f 491/1/5 488/1/5 487/1/5
f 492/1/5 490/1/5 489/1/5
f 493/1/5 491/1/5 487/1/5
f 493/1/5 492/1/5 491/1/5
f 494/1/5 490/1/5 492/1/5
f 494/1/5 492/1/5 493/1/5
f 497/2/5 496/2/5 495/2/5
f 498/2/5 496/2/5 497/2/5
f 503/12/5 500/12/5 499/12/5
f 504/1/5 501/1/5 500/1/5
f 504/12/5 500/12/5 503/12/5
f 505/12/5 502/12/5 501/12/5
f 505/1/5 501/1/5 504/1/5
f 506/12/5 502/12/5 505/12/5
f 511/2/5 508/2/5 507/2/5
f 514/2/5 510/2/5 509/2/5
f 515/2/5 512/2/5 511/2/5
f 515/2/5 511/2/5 507/2/5
f 516/2/5 512/2/5 515/2/5
f 517/2/5 514/2/5 513/2/5
f 518/2/5 510/2/5 514/2/5
f 518/2/5 514/2/5 517/2/5
f 523/2/5 520/2/5 519/2/5
f 524/2/5 520/2/5 523/2/5
f 525/2/5 522/2/5 521/2/5
f 526/2/5 522/2/5 525/2/5
f 531/2/5 528/2/5 527/2/5
f 532/2/5 528/2/5 531/2/5
f 533/2/5 530/2/5 529/2/5
f 534/2/5 530/2/5 533/2/5
f 541/12/5 536/12/5 535/12/5
f 542/12/5 536/12/5 541/12/5
f 543/12/5 536/12/5 542/12/5
f 544/2/5 538/2/5 537/2/5
f 545/2/5 538/2/5 544/2/5
f 546/12/5 540/12/5 539/12/5
f 547/12/5 540/12/5 546/12/5
f 548/12/5 540/12/5 547/12/5
f 549/5/6 550/5/6 551/5/6
f 551/5/6 550/5/6 552/5/6
f 552/5/6 550/5/6 553/5/6
f 553/5/6 550/5/6 554/5/6
f 549/5/6 551/5/6 555/5/6
f 552/5/6 553/5/6 556/5/6
f 555/5/6 556/5/6 557/5/6
f 556/5/6 553/5/6 558/5/6
f 557/5/6 556/5/6 558/5/6
f 555/5/6 557/5/6 559/5/6
f 558/5/6 553/5/6 560/5/6
f 555/5/6 559/5/6 561/5/6
f 560/5/6 553/5/6 562/5/6
f 562/5/6 553/5/6 563/5/6
f 561/5/6 562/5/6 563/5/6
f 554/5/6 550/5/6 564/5/6
f 561/5/6 563/5/6 565/5/6
f 563/5/6 564/5/6 565/5/6
f 549/5/6 555/5/6 565/5/6
f 555/5/6 561/5/6 565/5/6
f 564/5/6 550/5/6 566/5/6
f 565/5/6 564/5/6 566/5/6
f 567/8/6 568/8/6 569/8/6
f 569/8/6 568/8/6 570/8/6
f 569/9/6 570/9/6 571/9/6
f 571/9/6 570/9/6 572/9/6
f 572/9/6 570/9/6 573/9/6
f 573/9/6 570/9/6 574/9/6
f 574/9/6 570/9/6 575/9/6
f 575/9/6 570/9/6 576/9/6
f 576/9/6 570/9/6 577/9/6
f 577/9/6 570/9/6 578/9/6
f 569/9/6 571/9/6 581/9/6
f 571/8/6 572/8/6 581/8/6
f 572/9/6 573/9/6 582/9/6
f 581/8/6 572/8/6 582/8/6
f 573/8/6 574/8/6 583/8/6
f 582/9/6 573/9/6 583/9/6
f 574/9/6 575/9/6 584/9/6
f 583/8/6 574/8/6 584/8/6
f 575/8/6 576/8/6 585/8/6
f 584/9/6 575/9/6 585/9/6
f 576/9/6 577/9/6 586/9/6
f 585/8/6 576/8/6 586/8/6
f 577/8/6 578/8/6 587/8/6
f 586/9/6 577/9/6 587/9/6
f 578/9/6 570/9/6 588/9/6
f 587/8/6 578/8/6 588/8/6
f 579/9/6 580/9/6 589/9/6
f 589/9/6 580/9/6 590/9/6
f 569/9/6 581/9/6 591/9/6
f 581/9/6 582/9/6 591/9/6
f 582/8/6 583/8/6 592/8/6
f 591/9/6 582/9/6 592/9/6
f 583/9/6 584/9/6 593/9/6
f 592/8/6 583/8/6 593/8/6
f 584/8/6 585/8/6 594/8/6
f 593/9/6 584/9/6 594/9/6
f 585/9/6 586/9/6 595/9/6
f 594/8/6 585/8/6 595/8/6
f 586/8/6 587/8/6 596/8/6
f 595/9/6 586/9/6 596/9/6
f 587/9/6 588/9/6 597/9/6
f 596/8/6 587/8/6 597/8/6
f 588/9/6 570/9/6 598/9/6
f 597/9/6 588/9/6 598/9/6
f 569/9/6 591/9/6 599/9/6
f 591/8/6 592/8/6 599/8/6
f 592/9/6 593/9/6 600/9/6
f 599/8/6 592/8/6 600/8/6
f 593/8/6 594/8/6 601/8/6
f 600/9/6 593/9/6 601/9/6
f 594/9/6 595/9/6 602/9/6
f 601/8/6 594/8/6 602/8/6
f 595/8/6 596/8/6 603/8/6
f 602/9/6 595/9/6 603/9/6
f 596/9/6 597/9/6 604/9/6
f 603/8/6 596/8/6 604/8/6
f 597/8/6 598/8/6 605/8/6
f 604/9/6 597/9/6 605/9/6
f 598/9/6 570/9/6 606/9/6
f 605/8/6 598/8/6 606/8/6
f 589/8/6 590/8/6 607/8/6
f 607/8/6 590/8/6 608/8/6
f 567/8/6 569/8/6 609/8/6
f 602/9/6 603/9/6 609/9/6
f 600/9/6 601/9/6 609/9/6
f 605/9/6 606/9/6 609/9/6
f 601/9/6 602/9/6 609/9/6
f 599/9/6 600/9/6 609/9/6
f 569/9/6 599/9/6 609/9/6
f 603/9/6 604/9/6 609/9/6
f 604/9/6 605/9/6 609/9/6
f 570/8/6 568/8/6 610/8/6
f 609/9/6 606/9/6 610/9/6
f 606/9/6 570/9/6 610/9/6
f 567/8/6 609/8/6 611/8/6
f 609/8/6 610/8/6 611/8/6
f 611/8/6 610/8/6 612/8/6
f 612/8/6 610/8/6 613/8/6
f 610/8/6 568/8/6 614/8/6
f 613/8/6 610/8/6 614/8/6
f 615/10/6 616/10/6 617/10/6
f 617/10/6 616/10/6 618/10/6
f 619/1/6 620/1/6 623/1/6
f 623/1/6 620/1/6 624/1/6
f 624/1/6 620/1/6 625/1/6
f 621/1/6 622/1/6 626/1/6
f 626/1/6 622/1/6 627/1/6
f 627/1/6 622/1/6 628/1/6
f 623/3/6 624/3/6 629/3/6
f 629/3/6 624/3/6 630/3/6
f 627/3/6 628/3/6 631/3/6
f 631/3/6 628/3/6 632/3/6
f 633/12/6 634/12/6 637/12/6
f 637/12/6 634/12/6 638/12/6
f 635/12/6 636/12/6 639/12/6
f 639/12/6 636/12/6 640/12/6
f 641/8/6 642/8/6 643/8/6
f 643/8/6 642/8/6 644/8/6
f 645/12/6 646/12/6 647/12/6
f 647/12/6 646/12/6 648/12/6
f 649/2/6 650/2/6 651/2/6
f 651/2/6 650/2/6 652/2/6
f 649/2/6 651/2/6 653/2/6
f 652/2/6 650/2/6 654/2/6
f 649/2/6 653/2/6 655/2/6
f 653/2/6 654/2/6 655/2/6
f 654/2/6 650/2/6 656/2/6
f 655/2/6 654/2/6 656/2/6
f 657/2/6 658/2/6 659/2/6
f 659/2/6 658/2/6 660/2/6
